<svg width="30" height="38" viewBox="0 0 30 38" fill="none" xmlns="http://www.w3.org/2000/svg">
<path d="M19.0963 1.6001C19.3896 7.62401 22.0146 10.2101 24.5473 12.705C27.2016 15.3207 29.7648 17.8436 29.9233 23.6051C30.0025 26.4756 29.388 29.3285 28.0609 31.8203C26.8173 34.1532 24.9564 36.1649 22.456 37.5747C22.0409 37.8074 21.516 37.6601 21.2842 37.2433C21.2388 37.1623 21.208 37.0754 21.1904 36.99C20.6009 34.0296 19.1315 32.1002 17.4276 31.1885C16.6079 30.7496 15.7309 30.5478 14.876 30.5832C14.0342 30.6185 13.2086 30.8866 12.4783 31.3873C11.0808 32.3461 10.0235 34.168 9.80643 36.8604C9.76977 37.3361 9.35477 37.691 8.88111 37.6542C8.74619 37.6439 8.62008 37.6027 8.51009 37.5364C5.49653 35.9944 1.98428 33.2725 0.598625 28.676C-0.392692 25.3887 -0.281269 21.1677 1.91404 15.7742C2.09294 15.3324 2.59301 15.1218 3.03296 15.3C3.20307 15.3692 3.33945 15.487 3.4333 15.6314C4.44076 17.1999 5.49515 18.1734 6.58471 18.7346C7.35461 19.1308 8.15382 19.3266 8.97504 19.39C8.54245 16.088 8.08344 5.88453 17.8427 0.845811C18.265 0.627839 18.7827 0.794263 19.0012 1.21843C19.0628 1.3392 19.095 1.4688 19.0965 1.59694L19.0963 1.6001Z" fill="#94FF0B"/>
</svg>
